<svg id="visual" viewBox="0 0 900 600" width="900" height="600" xmlns="http://www.w3.org/2000/svg" xmlns:xlink="http://www.w3.org/1999/xlink" version="1.1"><rect x="0" y="0" width="900" height="600" fill="#22543d"></rect><path d="M0 483L21.5 482.7C43 482.3 86 481.7 128.8 478.5C171.7 475.3 214.3 469.7 257.2 475.8C300 482 343 500 385.8 501.3C428.7 502.7 471.3 487.3 514.2 481.3C557 475.3 600 478.7 642.8 485.2C685.7 491.7 728.3 501.3 771.2 504.8C814 508.3 857 505.7 878.5 504.3L900 503L900 601L878.5 601C857 601 814 601 771.2 601C728.3 601 685.7 601 642.8 601C600 601 557 601 514.2 601C471.3 601 428.7 601 385.8 601C343 601 300 601 257.2 601C214.3 601 171.7 601 128.8 601C86 601 43 601 21.5 601L0 601Z" fill="#1a4731" stroke-linecap="round" stroke-linejoin="miter"></path></svg>